<svg width="1000" height="1000" viewBox="0 0 1000 1000" fill="none" xmlns="http://www.w3.org/2000/svg">
<path d="M285.516 280.14C288.009 279.322 290.149 274.833 287.8 272.798C266.916 258.959 278.396 240.437 282.267 221.634C282.37 220.623 287.096 222.366 287.674 239.713C287.784 243.01 288.111 244.352 289.713 243.371C306.05 233.341 304.518 196.247 301.899 181.167C319.093 189.588 334.174 229.514 335.638 230.216C342.783 233.634 343.956 215.05 344.109 210.629C344.285 205.493 354.242 213.732 356.839 224.727C360.47 240.1 353.777 255.605 348.704 263.419C347.281 266.863 347.355 266.231 347.925 270.218C348.218 271.263 349.229 272.244 350.341 271.991C368.282 267.914 385.215 248.381 392.811 230.587C404.089 203.271 396.376 169.55 375.557 149.74C370.915 145.494 346.734 121.952 349.461 140.655C349.425 140.563 349.389 140.478 349.303 140.258C354.422 152.991 358.315 168.661 351.939 181.558C340.854 141.092 312.138 102.193 270.927 95.6295C266.605 93.9941 259.172 95.3743 261.569 101.796C274.491 125.795 277.365 155.681 269.367 181.945L269.303 182.155L269.317 182.117L269.231 182.4L269.303 182.155C267.232 188.822 264.535 195.266 261.335 201.409C261.473 201.141 261.537 201.034 261.333 201.413L261.335 201.409C261.146 201.762 260.942 202.107 260.75 202.458C260.265 187.851 235.207 151.162 237.3 184.474C235.788 197.356 229.328 209.119 228.336 222.19C224.602 255.68 252.503 290.505 285.516 280.14Z" fill="#2D5A27"/>
<path d="M865.195 730.057C865.416 730.281 865.416 730.322 865.195 730.057ZM697.059 727.679C606.19 721.243 515.213 703.533 428.212 674.88C521.755 672.845 613.295 678.462 668.242 684.386C714.308 689.308 759.979 695.405 804.427 706.367C816.011 709.401 827.382 712.528 838.137 716.46C834.441 717.582 830.728 718.598 827.113 719.528C785.105 729.902 740.448 730.416 697.059 727.679ZM401.832 412.005C442.705 417.491 483.892 428.554 516.613 451.742C523.646 456.804 530.229 463.292 533.842 469.379C521.375 483.127 492.589 483.97 473.652 483C411.419 477.086 355.2 449.659 306.322 411.296C338.134 408.001 370.217 408.065 401.832 412.005ZM535.166 467.521C535.108 467.742 534.973 467.969 534.868 468.216C534.927 468.033 534.985 467.847 535.053 467.698C535.102 467.546 535.317 467.29 535.166 467.521ZM935.004 682.081C910.095 647.027 862.286 634.737 824.187 624.974C679.244 593.726 448.515 584.313 277.368 611.299C234.642 587.705 194.358 557.893 165.421 519.598C152.668 501.517 132.929 469.785 155.517 454.39C163.95 447.908 176.263 443.408 186.931 439.454C198.495 435.169 210.254 431.325 222.142 427.881C286.149 497.995 371.973 551.198 467.566 560.728C496.698 563.26 529.055 561.128 557.621 548.515C599.43 530.894 627.837 485.924 609.67 440.743C580.229 369.877 482.258 338.074 413.557 327.638C351.831 318.421 289.125 321.762 228.536 335.06C226.247 332.327 223.979 329.584 221.746 326.823C199.237 300.121 161.093 323.051 167.513 352.013C163.833 353.254 160.151 354.487 156.498 355.8C137.335 362.583 119.135 369.859 101.919 382.662C34.6902 432.928 47.6211 513.481 92.6752 572.942C111.827 598.453 134.142 620.691 158.519 640.338C132.381 650.132 106.913 662.917 85.8175 681.958C52.6241 711.18 41.6536 753.062 66.7409 790.461C104.404 846.188 200.505 879.605 262.378 899.292C266.453 900.524 270.243 901.65 274.752 902.907C315.876 912.625 332.524 854.729 292.403 841.18C278.327 836.682 263.001 831.521 249.287 826.171C217.541 814.01 133.008 778.78 122.683 747.288C124.676 742.471 128.912 738.38 133.084 734.655C157.234 715.903 194.67 702.537 239.206 693.24C253.262 700.81 267.576 707.879 282.032 714.476C411.875 772.111 550.682 806.325 692.275 814.719C761.506 818.311 863.049 814.585 919.594 769.667C946.011 748.614 955.27 711.279 935.004 682.081Z" fill="#2D5A27"/>
</svg>
