<svg width="507" height="297" viewBox="0 0 507 297" fill="none" xmlns="http://www.w3.org/2000/svg">
<path d="M107.077 74.3417C107.898 74.0709 108.603 72.5841 107.829 71.9104C100.954 67.3272 104.734 61.1931 106.008 54.966C106.042 54.6311 107.597 55.2084 107.788 60.9534C107.824 62.0452 107.932 62.4897 108.459 62.1647C113.837 58.8431 113.333 46.5585 112.471 41.5644C118.131 44.353 123.096 57.5756 123.578 57.8081C125.93 58.9402 126.317 52.7856 126.367 51.3213C126.425 49.6205 129.703 52.3491 130.558 55.9904C131.753 61.0815 129.55 66.2162 127.88 68.8041C127.411 69.9448 127.435 69.7354 127.623 71.0557C127.719 71.4018 128.052 71.7268 128.418 71.6429C134.325 70.2928 139.899 63.8239 142.4 57.9309C146.113 48.8847 143.573 37.717 136.72 31.1563C135.192 29.7501 127.231 21.9536 128.129 28.1477C128.117 28.1173 128.105 28.0889 128.077 28.0163C129.762 32.2329 131.043 37.4224 128.944 41.6939C125.295 28.2924 115.841 15.41 102.275 13.2363C100.852 12.6947 98.4046 13.1518 99.1938 15.2786C103.448 23.2263 104.394 33.1239 101.761 41.822L101.74 41.8914L101.744 41.8788L101.716 41.9726L101.74 41.8914C101.058 44.0994 100.17 46.2335 99.1166 48.2678C99.1621 48.1793 99.1832 48.1437 99.116 48.2691L99.1166 48.2678C99.0547 48.3847 98.9874 48.499 98.9241 48.6152C98.7646 43.7778 90.5152 31.6272 91.2042 42.6595C90.7064 46.9257 88.5796 50.8213 88.2533 55.1502C87.0238 66.2413 96.2093 77.7743 107.077 74.3417Z" fill="#2D5A27"/>
<path d="M298.819 223.82C298.892 223.894 298.892 223.908 298.819 223.82ZM243.137 223.031C213.044 220.897 182.915 215.025 154.102 205.524C185.081 204.849 215.396 206.712 233.593 208.676C248.849 210.308 263.974 212.33 278.694 215.965C282.531 216.971 286.296 218.008 289.858 219.311C288.634 219.683 287.404 220.02 286.207 220.329C272.295 223.768 257.506 223.939 243.137 223.031ZM145.365 118.359C158.901 120.178 172.542 123.846 183.378 131.535C185.707 133.213 187.887 135.365 189.084 137.383C184.955 141.942 175.422 142.221 169.15 141.9C148.541 139.939 129.922 130.844 113.735 118.124C124.27 117.031 134.896 117.052 145.365 118.359ZM189.522 136.767C189.503 136.84 189.458 136.915 189.423 136.997C189.443 136.937 189.462 136.875 189.485 136.826C189.501 136.775 189.572 136.69 189.522 136.767ZM321.938 207.912C313.689 196.288 297.856 192.213 285.238 188.976C237.237 178.615 160.826 175.493 104.146 184.442C89.9966 176.618 76.6558 166.733 67.0727 154.035C62.8492 148.04 56.3122 137.518 63.7925 132.413C66.5855 130.264 70.663 128.771 74.196 127.46C78.0257 126.04 81.92 124.765 85.8571 123.623C107.054 146.872 135.477 164.513 167.135 167.673C176.783 168.512 187.498 167.806 196.959 163.623C210.805 157.781 220.212 142.869 214.196 127.888C204.446 104.39 172 93.8443 149.249 90.3839C128.807 87.3278 108.04 88.4355 87.9746 92.845C87.2165 91.9388 86.4656 91.0292 85.7259 90.1138C78.2716 81.2598 65.6395 88.8628 67.7656 98.4665C66.5466 98.878 65.3274 99.2868 64.1175 99.7221C57.7713 101.971 51.744 104.384 46.0423 108.629C23.7781 125.297 28.0605 152.007 42.9812 171.723C49.3237 180.182 56.7137 187.556 64.7868 194.07C56.1306 197.318 47.6964 201.557 40.7101 207.871C29.7173 217.56 26.0842 231.448 34.3924 243.849C46.8654 262.327 78.6915 273.407 99.1821 279.935C100.532 280.344 101.787 280.717 103.28 281.134C116.899 284.357 122.413 265.159 109.126 260.667C104.464 259.175 99.3885 257.464 94.8468 255.69C84.3335 251.657 56.3382 239.976 52.919 229.533C53.5791 227.936 54.9818 226.579 56.3634 225.344C64.3611 219.126 76.7593 214.694 91.5083 211.612C96.1634 214.122 100.903 216.466 105.691 218.654C148.691 237.764 194.661 249.109 241.553 251.892C264.48 253.083 298.108 251.848 316.835 236.954C325.583 229.973 328.649 217.593 321.938 207.912Z" fill="#2D5A27"/>
<path d="M190.322 282.399C191.118 282.399 191.862 282.315 192.553 282.146C193.243 281.978 193.855 281.707 194.386 281.335C195.324 280.536 196.046 279.481 196.551 278.168C197.055 276.855 197.307 275.32 197.307 273.564C197.307 271.701 197.019 270.106 196.445 268.775C195.868 267.444 195.05 266.433 193.987 265.741C192.925 265.049 191.668 264.704 190.216 264.704C189.33 264.704 188.506 264.81 187.746 265.023C186.983 265.235 186.303 265.573 185.701 266.033C184.886 266.849 184.261 267.874 183.828 269.107C183.393 270.341 183.178 271.79 183.178 273.458C183.178 275.32 183.469 276.921 184.054 278.261C184.638 279.6 185.462 280.625 186.525 281.335C187.587 282.044 188.852 282.399 190.322 282.399ZM190.269 283.969C188.339 283.969 186.692 283.565 185.329 282.758C183.965 281.951 182.929 280.767 182.221 279.206C181.513 277.645 181.158 275.756 181.158 273.538C181.158 271.302 181.518 269.41 182.235 267.857C182.951 266.304 183.988 265.125 185.342 264.317C186.696 263.511 188.32 263.106 190.216 263.106C192.145 263.106 193.792 263.511 195.156 264.317C196.519 265.125 197.555 266.309 198.263 267.87C198.972 269.431 199.326 271.32 199.326 273.538C199.326 275.756 198.972 277.645 198.263 279.206C197.555 280.767 196.524 281.951 195.169 282.758C193.815 283.565 192.181 283.969 190.269 283.969Z" fill="#FFF7E6"/>
<path d="M208.303 283.65C208.32 283.047 208.346 281.805 208.382 279.924C208.436 277.228 208.462 275.108 208.462 273.564C208.462 272.287 208.426 270.097 208.356 266.991C208.32 265.093 208.303 263.879 208.303 263.346H222.274V264.943H210.401V272.74L221.583 272.713V274.336L210.401 274.283C210.401 277.406 210.418 280.527 210.454 283.65H208.303Z" fill="#FFF7E6"/>
<path d="M250.933 283.969C249.002 283.969 247.359 283.565 246.005 282.758C244.65 281.951 243.623 280.767 242.924 279.206C242.225 277.645 241.875 275.756 241.875 273.538C241.875 271.32 242.229 269.431 242.937 267.87C243.645 266.309 244.677 265.125 246.031 264.317C247.386 263.511 249.019 263.106 250.933 263.106C252.543 263.106 253.93 263.386 255.089 263.944C256.249 264.503 257.187 265.315 257.904 266.38C258.621 267.444 259.121 268.739 259.405 270.265L257.44 270.557C257.032 268.624 256.27 267.164 255.155 266.18C254.04 265.195 252.57 264.704 250.747 264.704C249.861 264.704 249.055 264.81 248.329 265.023C247.603 265.235 246.948 265.573 246.365 266.033C245.567 266.868 244.956 267.928 244.531 269.213C244.107 270.499 243.894 271.986 243.894 273.671C243.894 275.534 244.181 277.122 244.757 278.434C245.332 279.748 246.16 280.736 247.241 281.401C248.321 282.066 249.613 282.399 251.119 282.399C251.896 282.399 252.618 282.315 253.283 282.146C253.947 281.978 254.536 281.716 255.049 281.361C255.58 280.918 256.019 280.376 256.364 279.738C256.709 279.099 256.997 278.364 257.227 277.529H259.246C258.732 279.623 257.784 281.219 256.403 282.319C255.022 283.419 253.199 283.969 250.933 283.969Z" fill="#FFF7E6"/>
<path d="M276.351 282.399C277.148 282.399 277.891 282.315 278.582 282.146C279.272 281.978 279.884 281.707 280.415 281.335C281.353 280.536 282.075 279.481 282.58 278.168C283.084 276.855 283.336 275.32 283.336 273.564C283.336 271.701 283.049 270.106 282.474 268.775C281.898 267.444 281.08 266.433 280.016 265.741C278.954 265.049 277.697 264.704 276.245 264.704C275.359 264.704 274.536 264.81 273.775 265.023C273.013 265.235 272.332 265.573 271.73 266.033C270.915 266.849 270.291 267.874 269.857 269.107C269.422 270.341 269.206 271.79 269.206 273.458C269.206 275.32 269.498 276.921 270.083 278.261C270.668 279.6 271.491 280.625 272.554 281.335C273.616 282.044 274.882 282.399 276.351 282.399ZM276.299 283.969C274.368 283.969 272.721 283.565 271.358 282.758C269.995 281.951 268.958 280.767 268.25 279.206C267.542 277.645 267.188 275.756 267.188 273.538C267.188 271.302 267.546 269.41 268.264 267.857C268.981 266.304 270.017 265.125 271.371 264.317C272.725 263.511 274.35 263.106 276.245 263.106C278.175 263.106 279.822 263.511 281.186 264.317C282.548 265.125 283.585 266.309 284.293 267.87C285.001 269.431 285.355 271.32 285.355 273.538C285.355 275.756 285.001 277.645 284.293 279.206C283.585 280.767 282.553 281.951 281.198 282.758C279.844 283.565 278.21 283.969 276.299 283.969Z" fill="#FFF7E6"/>
<path d="M302.272 282.399C303.069 282.399 303.813 282.315 304.503 282.146C305.194 281.978 305.805 281.707 306.336 281.335C307.274 280.536 307.996 279.481 308.501 278.168C309.006 276.855 309.257 275.32 309.257 273.564C309.257 271.701 308.97 270.106 308.395 268.775C307.819 267.444 307.001 266.433 305.937 265.741C304.875 265.049 303.618 264.704 302.167 264.704C301.28 264.704 300.457 264.81 299.696 265.023C298.935 265.235 298.254 265.573 297.651 266.033C296.837 266.849 296.212 267.874 295.779 269.107C295.344 270.341 295.128 271.79 295.128 273.458C295.128 275.32 295.419 276.921 296.004 278.261C296.589 279.6 297.412 280.625 298.475 281.335C299.537 282.044 300.803 282.399 302.272 282.399ZM302.22 283.969C300.289 283.969 298.643 283.565 297.28 282.758C295.916 281.951 294.879 280.767 294.171 279.206C293.463 277.645 293.109 275.756 293.109 273.538C293.109 271.302 293.468 269.41 294.185 267.857C294.902 266.304 295.938 265.125 297.292 264.317C298.647 263.511 300.271 263.106 302.167 263.106C304.096 263.106 305.743 263.511 307.107 264.317C308.47 265.125 309.506 266.309 310.214 267.87C310.922 269.431 311.276 271.32 311.276 273.538C311.276 275.756 310.922 277.645 310.214 279.206C309.506 280.767 308.474 281.951 307.12 282.758C305.766 283.565 304.132 283.969 302.22 283.969Z" fill="#FFF7E6"/>
<path d="M322.033 272.074H324.637L333.295 263.346H335.685L327.957 271.17C327.566 271.595 327.243 271.915 326.988 272.127C326.73 272.34 326.513 272.478 326.336 272.54C326.16 272.603 325.893 272.66 325.539 272.713V273.005C325.893 273.041 326.154 273.095 326.322 273.165C326.491 273.236 326.699 273.383 326.947 273.604C327.195 273.826 327.514 274.159 327.904 274.602L336.616 283.65H334.172L324.662 273.671H322.033V272.074ZM322.246 272.819C322.246 273.688 322.255 274.767 322.273 276.052C322.29 277.338 322.308 278.665 322.326 280.03C322.326 280.794 322.331 281.485 322.339 282.106C322.348 282.727 322.352 283.242 322.352 283.65H320.254C320.307 279.143 320.333 275.764 320.333 273.511C320.333 271.276 320.307 267.888 320.254 263.346H322.352C322.335 263.967 322.326 264.757 322.326 265.715C322.326 266.672 322.316 267.702 322.299 268.801C322.263 270.15 322.246 271.49 322.246 272.819Z" fill="#FFF7E6"/>
<path d="M344.902 283.65C344.955 279.712 344.981 276.332 344.981 273.511C344.981 270.709 344.955 267.32 344.902 263.346H347C346.947 266.291 346.921 269.679 346.921 273.511C346.921 277.326 346.947 280.705 347 283.65H344.902Z" fill="#FFF7E6"/>
<path d="M357.223 283.65L357.251 280.457C357.268 278.31 357.276 274.628 357.276 269.414L357.251 266.194C357.232 265.696 357.223 265.213 357.223 264.744C357.223 264.274 357.214 263.808 357.197 263.346H359.694L369.388 278.168C369.583 278.47 369.769 278.767 369.946 279.059C370.123 279.353 370.292 279.632 370.45 279.898C371.017 280.855 371.301 281.352 371.301 281.388H371.513L371.46 280.803C371.389 280.163 371.331 279.503 371.287 278.82C371.243 278.137 371.221 277.476 371.221 276.837C371.221 275.347 371.221 273.84 371.221 272.313C371.221 270.788 371.211 269.298 371.194 267.844C371.194 266.991 371.189 266.189 371.181 265.435C371.172 264.681 371.159 263.985 371.141 263.346H373.107C373.072 266.788 373.054 269.998 373.054 272.979C373.054 275.32 373.062 277.077 373.08 278.248V283.65H370.716L361.473 269.6C361.119 269.032 360.805 268.521 360.531 268.07C360.256 267.618 360.022 267.222 359.826 266.885C359.667 266.602 359.525 266.344 359.402 266.114C359.278 265.882 359.171 265.67 359.083 265.474H358.817L358.898 266.274C358.95 266.805 358.999 267.369 359.043 267.963C359.087 268.557 359.109 269.068 359.109 269.493C359.109 274.319 359.126 279.038 359.162 283.65H357.223Z" fill="#FFF7E6"/>
<path d="M390.823 283.969C389.07 283.969 387.533 283.565 386.214 282.758C384.895 281.951 383.877 280.762 383.161 279.192C382.443 277.622 382.084 275.739 382.084 273.538C382.084 271.32 382.439 269.435 383.146 267.882C383.854 266.331 384.882 265.147 386.227 264.331C387.573 263.515 389.203 263.106 391.115 263.106C392.903 263.106 394.369 263.399 395.51 263.985C396.652 264.571 397.529 265.391 398.14 266.446C398.751 267.501 399.171 268.8 399.401 270.345L397.41 270.637C397.055 268.739 396.391 267.271 395.417 266.233C394.443 265.195 392.992 264.676 391.062 264.676C390.229 264.676 389.446 264.788 388.711 265.008C387.976 265.231 387.317 265.555 386.732 265.98C385.883 266.797 385.227 267.821 384.767 269.054C384.306 270.287 384.076 271.746 384.076 273.432C384.076 275.294 384.373 276.904 384.966 278.261C385.558 279.617 386.396 280.652 387.475 281.361C388.555 282.071 389.795 282.425 391.194 282.425C392.08 282.425 392.864 282.327 393.545 282.133C394.226 281.938 394.824 281.645 395.338 281.255C395.71 280.954 396.069 280.532 396.414 279.991C396.759 279.45 397.038 278.895 397.25 278.328C397.463 277.759 397.577 277.299 397.596 276.944C397.596 276.678 397.596 276.403 397.596 276.12C397.596 275.836 397.604 275.614 397.621 275.453H392.31V274.096H399.508C399.491 275.125 399.508 276.803 399.56 279.126C399.578 279.818 399.596 280.536 399.614 281.281C399.632 282.027 399.641 282.816 399.641 283.65H397.755L397.782 279.02H397.649C397.241 280.652 396.466 281.885 395.324 282.719C394.183 283.553 392.682 283.969 390.823 283.969Z" fill="#FFF7E6"/>
<path d="M110.042 191.039H151.422V184.893H110.042V151.544H162.387V145.528H103.516V231.843H164.475V225.827H110.042V191.039Z" fill="#FFF7E6"/>
<path d="M183.535 145.528H177.008V231.843H225.419V225.827H183.535V145.528Z" fill="#FFF7E6"/>
<path d="M277.385 198.755L295.53 151.937L313.805 198.755H277.385ZM291.745 145.528L257.283 231.843H264.202L275.037 204.771H316.154L326.989 231.843H333.907L299.446 145.528H291.745Z" fill="#FFF7E6"/>
<path d="M350.094 188.293V151.544H375.417C382.378 151.544 387.707 153.136 391.408 156.318C395.105 159.501 396.956 164.056 396.956 169.984C396.956 175.914 395.105 180.446 391.408 183.585C387.707 186.724 382.378 188.293 375.417 188.293H350.094ZM396.042 187.705C401.175 183.477 403.743 177.569 403.743 169.984C403.743 162.399 401.197 156.428 396.106 152.067C391.016 147.709 384.163 145.528 375.547 145.528H343.566V231.843H350.094V194.44H374.764L375.417 194.047C375.489 194.047 375.557 194.045 375.628 194.044L400.61 231.843H408.311L383.091 193.407C388.218 192.491 392.535 190.592 396.042 187.705Z" fill="#FFF7E6"/>
<path d="M407.268 145.528V151.544H438.726V231.843H445.252V151.544H476.712V145.528H407.268Z" fill="#FFF7E6"/>
</svg>
