<?xml version="1.0" encoding="UTF-8" standalone="no"?>
<!-- Created with Inkscape (http://www.inkscape.org/) -->

<svg
   version="1.1"
   id="svg1"
   width="1025.3867"
   height="599.54669"
   viewBox="0 0 1025.3867 599.54669"
   sodipodi:docname="EL ART - of cooking.eps"
   xmlns:inkscape="http://www.inkscape.org/namespaces/inkscape"
   xmlns:sodipodi="http://sodipodi.sourceforge.net/DTD/sodipodi-0.dtd"
   xmlns="http://www.w3.org/2000/svg"
   xmlns:svg="http://www.w3.org/2000/svg">
  <defs
     id="defs1" />
  <sodipodi:namedview
     id="namedview1"
     pagecolor="#ffffff"
     bordercolor="#000000"
     borderopacity="0.25"
     inkscape:showpageshadow="2"
     inkscape:pageopacity="0.0"
     inkscape:pagecheckerboard="0"
     inkscape:deskcolor="#d1d1d1">
    <inkscape:page
       x="0"
       y="0"
       inkscape:label="1"
       id="page1"
       width="1025.3867"
       height="599.54669"
       margin="0"
       bleed="0" />
  </sodipodi:namedview>
  <g
     id="g1"
     inkscape:groupmode="layer"
     inkscape:label="1">
    <g
       id="group-R5">
      <path
         id="path2"
         d="m 1624.21,3371.06 c 12.45,4.1 23.14,26.61 11.41,36.81 -104.29,69.39 -46.96,162.26 -27.63,256.54 0.51,5.07 24.11,-3.67 27,-90.65 0.55,-16.53 2.18,-23.26 10.18,-18.34 81.58,50.29 73.93,236.28 60.85,311.89 85.86,-42.22 161.17,-242.41 168.48,-245.93 35.68,-17.14 41.54,76.04 42.3,98.21 0.88,25.75 50.6,-15.56 63.57,-70.69 18.13,-77.08 -15.29,-154.82 -40.62,-194 -7.11,-17.27 -6.74,-14.1 -3.89,-34.09 1.46,-5.24 6.51,-10.16 12.06,-8.89 89.59,20.44 174.15,118.38 212.08,207.6 56.32,136.96 17.8,306.04 -86.16,405.37 -23.18,21.29 -143.93,139.33 -130.31,45.55 -0.18,0.46 -0.36,0.89 -0.79,1.99 25.56,-63.84 45,-142.41 13.16,-207.08 -55.35,202.9 -198.75,397.94 -404.54,430.85 -21.58,8.2 -58.7,1.28 -46.73,-30.92 64.53,-120.33 78.88,-270.18 38.94,-401.87 l -0.32,-1.05 0.07,0.19 -0.43,-1.42 0.36,1.23 c -10.34,-33.43 -23.81,-65.74 -39.79,-96.54 0.69,1.34 1.01,1.88 -0.01,-0.02 l 0.01,0.02 c -0.94,-1.77 -1.96,-3.5 -2.92,-5.26 -2.42,73.24 -127.55,257.2 -117.1,90.17 -7.55,-64.59 -39.81,-123.57 -44.76,-189.11 -18.65,-167.92 120.68,-342.53 285.53,-290.56"
         style="fill:#f4b29c;fill-opacity:1;fill-rule:nonzero;stroke:none"
         transform="matrix(0.13333333,0,0,-0.13333333,0,599.54667)" />
      <path
         id="path3"
         d="m 4532.63,1107.95 c 1.11,-1.12 1.11,-1.33 0,0 z m -844.61,11.94 c -456.47,32.31 -913.48,121.22 -1350.52,265.06 469.9,10.22 929.74,-17.98 1205.76,-47.72 231.41,-24.71 460.83,-55.32 684.11,-110.35 58.19,-15.23 115.31,-30.93 169.34,-50.67 -18.57,-5.63 -37.22,-10.73 -55.38,-15.4 -211.02,-52.08 -435.35,-54.66 -653.31,-40.92 z M 2204.98,2704.64 c 205.32,-27.54 412.22,-83.08 576.59,-199.49 35.33,-25.41 68.4,-57.98 86.55,-88.54 -62.63,-69.02 -207.23,-73.25 -302.36,-68.38 -312.62,29.69 -595.03,167.38 -840.56,359.97 159.8,16.54 320.97,16.22 479.78,-3.56 z m 669.79,-278.7 c -0.29,-1.11 -0.97,-2.25 -1.5,-3.49 0.3,0.92 0.59,1.85 0.93,2.6 0.25,0.76 1.33,2.05 0.57,0.89 z M 4883.31,1348.8 c -125.13,175.98 -365.29,237.68 -556.68,286.69 -728.1,156.87 -1887.14,204.13 -2746.88,68.65 -214.63,118.45 -416.99,268.11 -562.35,460.36 -64.064,90.77 -163.22,250.07 -49.755,327.36 42.365,32.54 104.215,55.13 157.805,74.98 58.09,21.51 117.16,40.81 176.88,58.1 321.53,-351.99 752.66,-619.08 1232.86,-666.92 146.34,-12.71 308.88,-2.01 452.38,61.31 210.02,88.46 352.72,314.22 261.46,541.04 -147.89,355.76 -640.04,515.42 -985.15,567.81 -310.07,46.27 -625.07,29.5 -929.43,-37.26 -11.5,13.72 -22.89,27.49 -34.11,41.35 -113.07,134.05 -304.68,18.94 -272.43,-126.46 -18.49,-6.23 -36.984,-12.42 -55.336,-19.01 C 876.313,2952.75 784.887,2916.22 698.402,2851.95 360.688,2599.6 425.645,2195.21 651.969,1896.7 748.176,1768.63 860.27,1656.99 982.727,1558.36 851.426,1509.19 723.492,1445.01 617.52,1349.42 450.777,1202.72 395.668,992.461 521.691,804.711 710.887,524.949 1193.64,357.191 1504.45,258.359 c 20.47,-6.187 39.51,-11.839 62.16,-18.148 206.58,-48.789 290.21,241.859 88.67,309.879 -70.71,22.582 -147.7,48.492 -216.59,75.351 -159.47,61.047 -584.116,237.911 -635.979,396.009 10.012,24.18 31.289,44.72 52.246,63.42 121.313,94.14 309.373,161.24 533.093,207.91 70.61,-38 142.51,-73.49 215.13,-106.61 652.25,-289.338 1349.53,-461.1 2060.81,-503.24 347.77,-18.032 857.86,0.672 1141.91,226.172 132.7,105.688 179.21,293.118 77.41,439.698"
         style="fill:#f4b29c;fill-opacity:1;fill-rule:nonzero;stroke:none"
         transform="matrix(0.13333333,0,0,-0.13333333,0,599.54667)" />
      <path
         id="path4"
         d="m 2886.9,221.051 c 12.08,0 23.36,1.281 33.84,3.84 10.47,2.539 19.75,6.64 27.8,12.281 14.23,12.098 25.18,28.058 32.84,47.949 7.65,19.871 11.47,43.109 11.47,69.699 0,28.2 -4.36,52.36 -13.08,72.512 -8.74,20.148 -21.15,35.457 -37.28,45.93 -16.11,10.476 -35.18,15.707 -57.19,15.707 -13.45,0 -25.94,-1.61 -37.48,-4.84 -11.56,-3.207 -21.88,-8.32 -31.02,-15.289 -12.36,-12.36 -21.83,-27.871 -28.4,-46.539 -6.6,-18.68 -9.87,-40.629 -9.87,-65.871 0,-28.2 4.42,-52.442 13.29,-72.719 8.87,-20.281 21.36,-35.801 37.48,-46.539 16.11,-10.742 35.31,-16.121 57.6,-16.121 z m -0.8,-23.77 c -29.28,0 -54.26,6.117 -74.94,18.348 -20.68,12.211 -36.4,30.141 -47.14,53.769 -10.74,23.641 -16.12,52.243 -16.12,85.821 0,33.851 5.45,62.5 16.33,86.011 10.87,23.512 26.59,41.36 47.13,53.59 20.54,12.211 45.18,18.328 73.94,18.328 29.26,0 54.24,-6.117 74.93,-18.328 20.67,-12.23 36.39,-30.16 47.13,-53.789 10.74,-23.633 16.11,-52.242 16.11,-85.812 0,-33.578 -5.37,-62.18 -16.11,-85.821 -10.74,-23.628 -26.39,-41.558 -46.94,-53.769 -20.53,-12.231 -45.32,-18.348 -74.32,-18.348"
         style="fill:#292526;fill-opacity:1;fill-rule:nonzero;stroke:none"
         transform="matrix(0.13333333,0,0,-0.13333333,0,599.54667)" />
      <path
         id="path5"
         d="m 3159.65,202.121 c 0.26,9.129 0.66,27.93 1.2,56.41 0.82,40.821 1.21,72.918 1.21,96.289 0,19.332 -0.54,52.489 -1.6,99.512 -0.55,28.738 -0.81,47.129 -0.81,55.199 h 211.92 V 485.34 h -180.1 V 367.301 l 169.62,0.41 v -24.582 l -169.62,0.812 c 0,-47.281 0.26,-94.543 0.81,-141.82 h -32.63"
         style="fill:#292526;fill-opacity:1;fill-rule:nonzero;stroke:none"
         transform="matrix(0.13333333,0,0,-0.13333333,0,599.54667)" />
      <path
         id="path6"
         d="m 3806.27,197.281 c -29.28,0 -54.2,6.117 -74.74,18.348 -20.56,12.211 -36.13,30.141 -46.74,53.769 -10.6,23.641 -15.91,52.243 -15.91,85.821 0,33.57 5.37,62.179 16.11,85.812 10.74,23.629 26.39,41.559 46.93,53.789 20.56,12.211 45.33,18.328 74.35,18.328 24.42,0 45.46,-4.226 63.05,-12.687 17.59,-8.461 31.82,-20.75 42.7,-36.871 10.87,-16.11 18.46,-35.719 22.76,-58.82 l -29.81,-4.418 c -6.18,29.257 -17.74,51.359 -34.65,66.257 -16.92,14.922 -39.22,22.36 -66.87,22.36 -13.44,0 -25.66,-1.61 -36.67,-4.84 -11.02,-3.207 -20.95,-8.32 -29.8,-15.289 -12.1,-12.641 -21.37,-28.688 -27.81,-48.149 -6.44,-19.472 -9.67,-41.972 -9.67,-67.492 0,-28.199 4.36,-52.25 13.1,-72.109 8.72,-19.891 21.27,-34.86 37.67,-44.918 16.38,-10.07 35.98,-15.121 58.82,-15.121 11.8,0 22.75,1.281 32.83,3.84 10.07,2.539 19,6.511 26.79,11.879 8.05,6.71 14.71,14.91 19.94,24.582 5.24,9.668 9.6,20.796 13.09,33.437 h 30.63 c -7.79,-31.699 -22.17,-55.867 -43.12,-72.519 -20.95,-16.661 -48.61,-24.989 -82.98,-24.989"
         style="fill:#292526;fill-opacity:1;fill-rule:nonzero;stroke:none"
         transform="matrix(0.13333333,0,0,-0.13333333,0,599.54667)" />
      <path
         id="path7"
         d="m 4191.82,221.051 c 12.08,0 23.36,1.281 33.84,3.84 10.47,2.539 19.75,6.64 27.8,12.281 14.23,12.098 25.18,28.058 32.84,47.949 7.65,19.871 11.47,43.109 11.47,69.699 0,28.2 -4.36,52.36 -13.08,72.512 -8.74,20.148 -21.15,35.457 -37.28,45.93 -16.11,10.476 -35.18,15.707 -57.2,15.707 -13.44,0 -25.93,-1.61 -37.47,-4.84 -11.56,-3.207 -21.89,-8.32 -31.02,-15.289 -12.36,-12.36 -21.83,-27.871 -28.41,-46.539 -6.59,-18.68 -9.87,-40.629 -9.87,-65.871 0,-28.2 4.43,-52.442 13.3,-72.719 8.87,-20.281 21.36,-35.801 37.48,-46.539 16.11,-10.742 35.31,-16.121 57.6,-16.121 z m -0.8,-23.77 c -29.28,0 -54.26,6.117 -74.94,18.348 -20.68,12.211 -36.4,30.141 -47.14,53.769 -10.74,23.641 -16.12,52.243 -16.12,85.821 0,33.851 5.44,62.5 16.33,86.011 10.87,23.512 26.59,41.36 47.13,53.59 20.54,12.211 45.18,18.328 73.93,18.328 29.27,0 54.25,-6.117 74.94,-18.328 20.67,-12.23 36.39,-30.16 47.13,-53.789 10.74,-23.633 16.11,-52.242 16.11,-85.812 0,-33.578 -5.37,-62.18 -16.11,-85.821 -10.74,-23.628 -26.39,-41.558 -46.94,-53.769 -20.54,-12.231 -45.32,-18.348 -74.32,-18.348"
         style="fill:#292526;fill-opacity:1;fill-rule:nonzero;stroke:none"
         transform="matrix(0.13333333,0,0,-0.13333333,0,599.54667)" />
      <path
         id="path8"
         d="m 4585.01,221.051 c 12.08,0 23.36,1.281 33.84,3.84 10.47,2.539 19.75,6.64 27.8,12.281 14.23,12.098 25.18,28.058 32.84,47.949 7.65,19.871 11.47,43.109 11.47,69.699 0,28.2 -4.36,52.36 -13.08,72.512 -8.74,20.148 -21.15,35.457 -37.28,45.93 -16.11,10.476 -35.18,15.707 -57.19,15.707 -13.45,0 -25.94,-1.61 -37.48,-4.84 -11.55,-3.207 -21.88,-8.32 -31.02,-15.289 -12.35,-12.36 -21.83,-27.871 -28.4,-46.539 -6.59,-18.68 -9.87,-40.629 -9.87,-65.871 0,-28.2 4.42,-52.442 13.29,-72.719 8.87,-20.281 21.36,-35.801 37.48,-46.539 16.11,-10.742 35.31,-16.121 57.6,-16.121 z m -0.8,-23.77 c -29.28,0 -54.26,6.117 -74.93,18.348 -20.69,12.211 -36.41,30.141 -47.15,53.769 -10.74,23.641 -16.11,52.243 -16.11,85.821 0,33.851 5.44,62.5 16.32,86.011 10.87,23.512 26.59,41.36 47.13,53.59 20.54,12.211 45.18,18.328 73.94,18.328 29.26,0 54.24,-6.117 74.93,-18.328 20.67,-12.23 36.39,-30.16 47.13,-53.789 10.74,-23.633 16.11,-52.242 16.11,-85.812 0,-33.578 -5.37,-62.18 -16.11,-85.821 -10.74,-23.628 -26.39,-41.558 -46.93,-53.769 -20.54,-12.231 -45.33,-18.348 -74.33,-18.348"
         style="fill:#292526;fill-opacity:1;fill-rule:nonzero;stroke:none"
         transform="matrix(0.13333333,0,0,-0.13333333,0,599.54667)" />
      <path
         id="path9"
         d="m 4884.75,377.379 h 39.49 l 131.34,132.152 h 36.25 L 4974.6,391.07 c -5.92,-6.441 -10.82,-11.281 -14.7,-14.488 -3.91,-3.23 -7.2,-5.312 -9.88,-6.25 -2.68,-0.953 -6.72,-1.82 -12.09,-2.621 v -4.43 c 5.37,-0.543 9.33,-1.359 11.88,-2.422 2.56,-1.07 5.71,-3.3 9.48,-6.64 3.75,-3.36 8.59,-8.41 14.51,-15.117 l 132.14,-136.981 h -37.06 l -144.25,151.078 h -39.88 z m 3.23,-11.277 c 0,-13.161 0.13,-29.493 0.41,-48.954 0.26,-19.468 0.52,-39.558 0.8,-60.226 0,-11.563 0.07,-22.031 0.2,-31.422 0.13,-9.41 0.19,-17.199 0.19,-23.379 h -31.82 c 0.81,68.231 1.2,119.391 1.2,153.508 0,33.832 -0.39,85.133 -1.2,153.902 h 31.82 c -0.26,-9.41 -0.39,-21.371 -0.39,-35.871 0,-14.488 -0.15,-30.09 -0.41,-46.719 -0.54,-20.429 -0.8,-40.711 -0.8,-60.839"
         style="fill:#292526;fill-opacity:1;fill-rule:nonzero;stroke:none"
         transform="matrix(0.13333333,0,0,-0.13333333,0,599.54667)" />
      <path
         id="path10"
         d="m 5231.63,202.121 c 0.8,59.621 1.19,110.801 1.19,153.508 0,42.422 -0.39,93.723 -1.19,153.902 h 31.82 c -0.81,-44.59 -1.2,-95.89 -1.2,-153.902 0,-57.758 0.39,-108.918 1.2,-153.508 h -31.82"
         style="fill:#292526;fill-opacity:1;fill-rule:nonzero;stroke:none"
         transform="matrix(0.13333333,0,0,-0.13333333,0,599.54667)" />
      <path
         id="path11"
         d="m 5418.54,202.121 0.42,48.34 c 0.26,32.508 0.39,88.25 0.39,167.199 l -0.39,48.75 c -0.29,7.531 -0.42,14.84 -0.42,21.949 0,7.121 -0.13,14.172 -0.39,21.172 h 37.87 l 147.05,-224.41 c 2.95,-4.57 5.77,-9.07 8.46,-13.492 2.68,-4.449 5.24,-8.68 7.65,-12.707 8.59,-14.492 12.9,-22.012 12.9,-22.551 h 3.22 l -0.81,8.859 c -1.08,9.68 -1.95,19.68 -2.62,30.02 -0.67,10.332 -1,20.34 -1,30.02 0,22.55 0,45.371 0,68.492 0,23.09 -0.15,45.648 -0.41,67.668 0,12.902 -0.07,25.05 -0.2,36.468 -0.13,11.411 -0.34,21.954 -0.6,31.633 h 29.82 c -0.54,-52.121 -0.81,-100.722 -0.81,-145.859 0,-35.442 0.13,-62.031 0.39,-79.762 v -81.789 h -35.85 L 5483,414.84 c -5.36,8.601 -10.13,16.332 -14.29,23.16 -4.17,6.852 -7.72,12.84 -10.68,17.941 -2.42,4.289 -4.57,8.188 -6.44,11.68 -1.88,3.5 -3.5,6.711 -4.83,9.68 h -4.04 l 1.22,-12.102 c 0.8,-8.051 1.54,-16.578 2.21,-25.578 0.66,-9 1,-16.723 1,-23.16 0,-73.063 0.26,-144.512 0.8,-214.34 h -29.41"
         style="fill:#292526;fill-opacity:1;fill-rule:nonzero;stroke:none"
         transform="matrix(0.13333333,0,0,-0.13333333,0,599.54667)" />
      <path
         id="path12"
         d="m 5928.19,197.281 c -26.59,0 -49.9,6.117 -69.9,18.348 -20.01,12.211 -35.46,30.211 -46.32,53.98 -10.89,23.77 -16.33,52.289 -16.33,85.61 0,33.57 5.38,62.113 16.11,85.621 10.74,23.492 26.33,41.422 46.74,53.769 20.41,12.36 45.13,18.539 74.13,18.539 27.13,0 49.36,-4.429 66.67,-13.296 17.33,-8.872 30.62,-21.293 39.89,-37.262 9.27,-15.981 15.65,-35.649 19.14,-59.031 l -30.21,-4.43 c -5.38,28.742 -15.46,50.973 -30.23,66.68 -14.77,15.722 -36.78,23.57 -66.06,23.57 -12.63,0 -24.51,-1.688 -35.66,-5.027 -11.15,-3.372 -21.15,-8.27 -30.01,-14.711 -12.89,-12.36 -22.84,-27.871 -29.82,-46.539 -6.99,-18.672 -10.48,-40.75 -10.48,-66.282 0,-28.191 4.51,-52.57 13.51,-73.109 8.98,-20.539 21.69,-36.199 38.06,-46.941 16.38,-10.75 35.18,-16.11 56.41,-16.11 13.43,0 25.32,1.481 35.66,4.43 10.33,2.949 19.39,7.39 27.19,13.289 5.64,4.562 11.09,10.941 16.32,19.133 5.23,8.199 9.47,16.59 12.68,25.179 3.23,8.61 4.97,15.579 5.25,20.95 0,4.039 0,8.199 0,12.488 0,4.301 0.13,7.66 0.39,10.09 h -80.57 v 20.543 h 109.18 c -0.26,-15.582 0,-40.973 0.8,-76.153 0.27,-10.48 0.54,-21.339 0.81,-32.617 0.28,-11.301 0.41,-23.25 0.41,-35.871 h -28.61 l 0.41,70.098 h -2.02 c -6.18,-24.707 -17.93,-43.379 -35.26,-56 -17.31,-12.629 -40.08,-18.938 -68.28,-18.938"
         style="fill:#292526;fill-opacity:1;fill-rule:nonzero;stroke:none"
         transform="matrix(0.13333333,0,0,-0.13333333,0,599.54667)" />
      <path
         id="path13"
         d="m 1669.19,1604.25 h 627.66 v 93.06 h -627.66 v 504.9 h 793.98 v 91.08 H 1570.19 V 986.488 h 924.66 v 91.082 h -825.66 v 526.68"
         style="fill:#292526;fill-opacity:1;fill-rule:nonzero;stroke:none"
         transform="matrix(0.13333333,0,0,-0.13333333,0,599.54667)" />
      <path
         id="path14"
         d="m 2783.93,2293.29 h -99 V 986.488 h 734.32 v 91.082 h -635.32 v 1215.72"
         style="fill:#292526;fill-opacity:1;fill-rule:nonzero;stroke:none"
         transform="matrix(0.13333333,0,0,-0.13333333,0,599.54667)" />
      <path
         id="path15"
         d="m 4207.52,1487.43 275.23,708.84 277.2,-708.84 z M 4425.33,2293.29 3902.6,986.488 h 104.94 l 164.35,409.862 h 623.69 l 164.35,-409.862 h 104.94 L 4542.14,2293.29 h -116.81"
         style="fill:#292526;fill-opacity:1;fill-rule:nonzero;stroke:none"
         transform="matrix(0.13333333,0,0,-0.13333333,0,599.54667)" />
      <path
         id="path16"
         d="m 5310.39,1645.83 v 556.38 h 384.12 c 105.58,0 186.42,-24.1 242.55,-72.27 56.08,-48.2 84.15,-117.16 84.15,-206.91 0,-89.78 -28.07,-158.4 -84.15,-205.92 -56.13,-47.52 -136.97,-71.28 -242.55,-71.28 z m 696.96,8.91 c 77.86,64.01 116.82,153.45 116.82,268.29 0,114.84 -38.62,205.24 -115.84,271.26 -77.21,65.99 -181.17,99 -311.85,99 h -485.1 V 986.488 h 99.01 v 566.282 h 374.21 l 9.91,5.94 c 1.08,0 2.12,0.04 3.19,0.05 l 378.95,-572.272 h 116.81 L 5810.91,1568.4 c 77.77,13.87 143.25,42.62 196.44,86.34"
         style="fill:#292526;fill-opacity:1;fill-rule:nonzero;stroke:none"
         transform="matrix(0.13333333,0,0,-0.13333333,0,599.54667)" />
      <path
         id="path17"
         d="m 6177.63,2293.29 v -91.08 h 477.18 V 986.488 h 98.99 V 2202.21 h 477.19 v 91.08 H 6177.63"
         style="fill:#292526;fill-opacity:1;fill-rule:nonzero;stroke:none"
         transform="matrix(0.13333333,0,0,-0.13333333,0,599.54667)" />
    </g>
  </g>
</svg>
